<svg id="adobe-xd-1" xmlns="http://www.w3.org/2000/svg" width="22" height="21.45" viewBox="0 0 22 21.45">
  <path id="Path_678" data-name="Path 678" d="M18.1,21.45H3.9a3.892,3.892,0,0,1-3.9-3.9V3.9A3.892,3.892,0,0,1,3.9,0H18.1A3.892,3.892,0,0,1,22,3.9V17.554A3.892,3.892,0,0,1,18.1,21.45Z" fill="#ff79c6"/>
  <path id="Path_679" data-name="Path 679" d="M121.3,124.128H107.579a3.385,3.385,0,0,1-3.379-3.38V107.58a3.385,3.385,0,0,1,3.379-3.38h13.712a3.379,3.379,0,0,1,3.379,3.38v13.158a3.374,3.374,0,0,1-3.37,3.389Z" transform="translate(-103.439 -103.439)" fill="#2e001f"/>
  <path id="Path_680" data-name="Path 680" d="M471.778,598.553l2.845,5.885c.051.087.02.175-.061.175h-1.768a.2.2,0,0,1-.214-.142c-.65-1.444-1.311-2.888-1.991-4.441h-.02c-.61,1.466-1.281,3.009-1.93,4.453a.2.2,0,0,1-.183.121H466.78c-.1,0-.112-.087-.06-.153l2.783-5.711-2.692-5.776c-.061-.087,0-.153.06-.153h1.748a.159.159,0,0,1,.182.121c.64,1.444,1.29,2.932,1.9,4.387h.021c.589-1.444,1.24-2.943,1.869-4.376.051-.087.081-.142.183-.142h1.635c.081,0,.112.066.061.153Zm3.343,1.783c0-2.549,1.575-4.54,4.073-4.54a4.153,4.153,0,0,1,.529.022v-2.9a.105.105,0,0,1,.1-.109h1.605c.081,0,.1.033.1.087v10.043a8.408,8.408,0,0,0,.051,1.072c0,.066-.021.087-.081.121a5.689,5.689,0,0,1-2.6.634c-2.2.01-3.78-1.455-3.779-4.432Zm4.6-2.8a1.431,1.431,0,0,0-.589-.109c-1.28,0-2.174,1.061-2.174,2.823,0,2.013.915,2.823,2.063,2.823a1.781,1.781,0,0,0,.7-.121v-5.416Z" transform="translate(-463.28 -588.469)" fill="#ffd9f2"/>
</svg>
