<svg id="figma-1" xmlns="http://www.w3.org/2000/svg" width="14.667" height="22" viewBox="0 0 14.667 22">
  <path id="Path_2143" data-name="Path 2143" d="M3.712,207.424a3.713,3.713,0,0,0,3.712-3.712V200H3.712a3.712,3.712,0,1,0,0,7.424Z" transform="translate(0 -185.424)" fill="#0acf83"/>
  <path id="Path_2144" data-name="Path 2144" d="M0,103.712A3.713,3.713,0,0,1,3.712,100H7.424v7.424H3.712A3.713,3.713,0,0,1,0,103.712Z" transform="translate(0 -92.712)" fill="#a259ff"/>
  <path id="Path_2145" data-name="Path 2145" d="M0,3.712A3.713,3.713,0,0,1,3.712,0H7.424V7.424H3.712A3.713,3.713,0,0,1,0,3.712Z" fill="#f24e1e"/>
  <path id="Path_2146" data-name="Path 2146" d="M100,0h3.712a3.712,3.712,0,1,1,0,7.424H100Z" transform="translate(-92.757)" fill="#ff7262"/>
  <path id="Path_2147" data-name="Path 2147" d="M107.424,103.712A3.712,3.712,0,1,1,103.712,100,3.713,3.713,0,0,1,107.424,103.712Z" transform="translate(-92.757 -92.712)" fill="#1abcfe"/>
</svg>
