<svg xmlns="http://www.w3.org/2000/svg" width="21.36" height="24" viewBox="0 0 21.36 24">
  <path id="graphql" d="M12.73,2.75,17.665,5.6A2.14,2.14,0,1,1,19.719,9.15v5.7a2.14,2.14,0,1,1-2.1,3.5l-4.9,2.832a2.139,2.139,0,1,1-4.083.069L3.694,18.407A2.14,2.14,0,1,1,1.64,14.851V9.15A2.14,2.14,0,1,1,3.692,5.6l4.936-2.85a2.139,2.139,0,1,1,4.1,0Zm-.514.878,4.947,2.856A2.137,2.137,0,0,0,18.7,9.145v5.708l-.083.022L12.159,3.685l.057-.057ZM9.2,3.687,2.741,14.876l-.084-.023V9.145A2.137,2.137,0,0,0,4.2,6.481L9.141,3.626l.061.061Zm2.075.507,6.459,11.187a2.147,2.147,0,0,0-.6,1.044H4.225a2.13,2.13,0,0,0-.6-1.041l6.46-11.189a2.161,2.161,0,0,0,1.193,0Zm.984,16.227,4.915-2.838q-.022-.069-.039-.14H4.222q-.01.042-.022.083l4.939,2.851a2.142,2.142,0,0,1,3.123.044Z" transform="translate(0)" fill="#ff79c6" fill-rule="evenodd"/>
</svg>
