<svg id="logo-javascript" xmlns="http://www.w3.org/2000/svg" width="21.996" height="21.996" viewBox="0 0 21.996 21.996">
  <path id="Path_3749" data-name="Path 3749" d="M0,0H22V22H0Z" fill="#f0db4f"/>
  <path id="Path_3750" data-name="Path 3750" d="M290.915,484.009c-.161-1-.815-1.846-2.754-2.632-.673-.309-1.424-.531-1.648-1.041a1.136,1.136,0,0,1-.04-.644,1.059,1.059,0,0,1,1.393-.6,1.532,1.532,0,0,1,.895.83c.949-.615.947-.611,1.61-1.033a4.1,4.1,0,0,0-.531-.711,3.1,3.1,0,0,0-2.593-.941l-.648.084a2.94,2.94,0,0,0-1.56.92,2.88,2.88,0,0,0,.523,4.1c1.248.937,3.082,1.15,3.316,2.026.228,1.073-.788,1.42-1.8,1.3a2.357,2.357,0,0,1-1.606-1.221c-.824.477-.824.477-1.671.964a3.717,3.717,0,0,0,.749,1.018c1.593,1.616,5.581,1.537,6.3-.91A3.019,3.019,0,0,0,290.915,484.009Zm-8.238-6.641h-2.057c0,1.777-.008,3.542-.008,5.319a8.7,8.7,0,0,1-.125,2.486,1.156,1.156,0,0,1-1.436.427,1.766,1.766,0,0,1-.759-.788,1.061,1.061,0,0,0-.117-.188q-.837.511-1.673,1.025a3.307,3.307,0,0,0,1.213,1.388,3.994,3.994,0,0,0,2.94.362,2.6,2.6,0,0,0,1.66-1.3,6.379,6.379,0,0,0,.364-3.065C282.687,481.146,282.677,479.26,282.677,477.368Z" transform="translate(-270.719 -467.259)" fill="#323330"/>
</svg>
