<svg xmlns="http://www.w3.org/2000/svg" width="9.881" height="22" viewBox="0 0 9.881 22">
  <g id="mongodb-icon-1" transform="translate(-8.813 0)">
    <path id="Path_2130" data-name="Path 2130" d="M15.892.087l.588,1.1a3.294,3.294,0,0,0,.444.551A15.407,15.407,0,0,1,18.3,3.3a13.528,13.528,0,0,1,2.147,4.325,10.621,10.621,0,0,1,.456,2.935A10.35,10.35,0,0,1,17.878,18.2a8.737,8.737,0,0,1-1.081.922c-.2,0-.3-.156-.384-.3a2.465,2.465,0,0,1-.3-.863,4.162,4.162,0,0,1-.1-1.09V16.7C16,16.667,15.821.172,15.892.087Z" transform="translate(-2.213 -0.027)" fill="#599636"/>
    <path id="Path_2131" data-name="Path 2131" d="M13.691.023c-.024-.048-.048-.012-.072.012a1.107,1.107,0,0,1-.2.66,3.164,3.164,0,0,1-.528.527A11.483,11.483,0,0,0,10.308,4.5,13.174,13.174,0,0,0,8.821,9.871a17.835,17.835,0,0,0,.432,3.786,11.475,11.475,0,0,0,3.011,4.732,13.153,13.153,0,0,0,1.067.911c.108,0,.12-.1.145-.168a3.282,3.282,0,0,0,.108-.467l.241-1.8Z" transform="translate(0 0)" fill="#6cac48"/>
    <path id="Path_2132" data-name="Path 2132" d="M16.325,27.351a1.642,1.642,0,0,1,.3-.732.757.757,0,0,1-.336-.312,2.226,2.226,0,0,1-.179-.4,6.85,6.85,0,0,1-.252-1.547v-.312a1.5,1.5,0,0,0-.072.516,11.955,11.955,0,0,1-.216,1.619,1.441,1.441,0,0,1-.193.624.239.239,0,0,0,.012.084A7.163,7.163,0,0,1,15.7,28.84v.241c0,.288-.012.227.227.323a1.052,1.052,0,0,1,.3.12c.072,0,.084-.06.084-.108l-.036-.4v-1.1a2.919,2.919,0,0,1,.048-.564Z" transform="translate(-2.052 -7.524)" fill="#c2bfbf"/>
  </g>
</svg>
