<svg xmlns="http://www.w3.org/2000/svg" width="22" height="21.596" viewBox="0 0 22 21.596">
  <g id="mysql-6" transform="translate(-0.024)">
    <path id="Path_2139" data-name="Path 2139" d="M20.289,16.7a6.926,6.926,0,0,0-2.9.419c-.224.09-.584.09-.614.374.12.12.135.314.239.479a3.508,3.508,0,0,0,.778.913c.314.239.629.479.958.688.584.359,1.242.569,1.811.928.329.209.658.479.987.7.165.12.269.314.479.389v-.045c-.1-.135-.135-.329-.239-.479-.149-.15-.3-.284-.449-.434a7.1,7.1,0,0,0-1.556-1.511c-.479-.329-1.526-.778-1.721-1.332l-.03-.03a6.085,6.085,0,0,0,1.032-.239c.509-.135.973-.1,1.5-.239.239-.06.479-.135.718-.21v-.135c-.269-.269-.464-.628-.748-.883a19.95,19.95,0,0,0-2.469-1.84c-.464-.3-1.062-.494-1.556-.748-.179-.09-.479-.135-.583-.284a6.035,6.035,0,0,1-.614-1.152c-.434-.823-.853-1.736-1.227-2.6a15.914,15.914,0,0,0-.763-1.706,15.081,15.081,0,0,0-5.791-5.6A7.192,7.192,0,0,0,5.61,1.516c-.374-.015-.748-.045-1.122-.06A5.953,5.953,0,0,1,3.8.932C2.947.393.747-.774.119.768c-.4.973.6,1.93.943,2.424a7.048,7.048,0,0,1,.763,1.122c.1.254.135.524.239.793a17.966,17.966,0,0,0,.778,2.005,7.234,7.234,0,0,0,.554.928c.12.165.329.239.374.509A4.286,4.286,0,0,0,3.425,9.67,6.592,6.592,0,0,0,3.859,14.7c.239.374.808,1.2,1.571.883.673-.269.524-1.122.718-1.87.045-.18.015-.3.1-.419v.03c.21.419.419.823.613,1.242a8.545,8.545,0,0,0,1.945,2.005c.359.269.643.733,1.092.9v-.045h-.03a1.654,1.654,0,0,0-.344-.3,7.255,7.255,0,0,1-.778-.9A19.252,19.252,0,0,1,7.076,13.5c-.239-.464-.449-.973-.643-1.436-.09-.18-.09-.449-.239-.539a5.632,5.632,0,0,0-.718,1.017A8.437,8.437,0,0,0,5.057,14.8c-.06.015-.03,0-.06.03-.479-.12-.643-.614-.823-1.033a6.471,6.471,0,0,1-.135-4c.1-.314.554-1.3.374-1.6-.09-.284-.389-.449-.554-.673a6.029,6.029,0,0,1-.539-.958c-.359-.838-.539-1.766-.928-2.6a7.964,7.964,0,0,0-.748-1.152A7.408,7.408,0,0,1,.822,1.65c-.075-.165-.18-.434-.06-.613A.238.238,0,0,1,.972.842c.195-.165.748.045.943.135A7.627,7.627,0,0,1,3.4,1.725c.209.15.434.434.7.509h.314c.479.1,1.017.03,1.466.165A9.562,9.562,0,0,1,8.034,3.431,13.275,13.275,0,0,1,12.7,8.548c.18.344.254.658.419,1.017.314.733.7,1.481,1.017,2.2A9.84,9.84,0,0,0,15.2,13.77c.224.314,1.122.479,1.526.643a10.612,10.612,0,0,1,1.032.419c.509.314,1.017.673,1.5,1.017.239.18.987.554,1.032.853Z" transform="translate(0 0)" fill="#00546b"/>
    <path id="Path_2140" data-name="Path 2140" d="M51.679,43.022a2.415,2.415,0,0,0-.625.076v.03h.03a4.912,4.912,0,0,0,.488.625c.122.244.229.488.351.732l.03-.03a.86.86,0,0,0,.32-.762,3.412,3.412,0,0,1-.183-.32C52,43.22,51.8,43.144,51.679,43.022Z" transform="translate(-46.646 -39.327)" fill="#00546b"/>
  </g>
</svg>
