<svg xmlns="http://www.w3.org/2000/svg" width="22" height="22.003" viewBox="0 0 22 22.003">
  <g id="Group_626" data-name="Group 626" transform="translate(4201 -6756)">
    <circle id="Ellipse_14" data-name="Ellipse 14" cx="11" cy="11" r="11" transform="translate(-4201 6756)" fill="#fff"/>
    <g id="next-js" transform="translate(-4201.5 6755.675)">
      <path id="Path_2117" data-name="Path 2117" d="M10.78.33c-.047,0-.2.019-.333.03A11.026,11.026,0,0,0,2.541,4.92,10.89,10.89,0,0,0,.6,9.726a8.421,8.421,0,0,0-.1,1.6,8.421,8.421,0,0,0,.1,1.6,11.046,11.046,0,0,0,7.525,8.888,11.63,11.63,0,0,0,2.323.482,20.262,20.262,0,0,0,2.108,0,11.106,11.106,0,0,0,3.963-1.159c.189-.1.226-.123.2-.144s-.824-1.095-1.791-2.4l-1.759-2.376-2.2-3.262C9.749,11.163,8.752,9.7,8.743,9.7s-.017,1.447-.022,3.217a25.251,25.251,0,0,1-.047,3.3.391.391,0,0,1-.189.2c-.069.034-.129.041-.454.041H7.659l-.1-.062a.4.4,0,0,1-.144-.157l-.045-.1,0-4.312L7.382,7.5l.067-.084a.59.59,0,0,1,.159-.131c.088-.043.123-.047.495-.047.439,0,.512.017.626.142.032.034,1.226,1.832,2.654,4s3.381,5.123,4.34,6.574l1.742,2.639.088-.058a11.292,11.292,0,0,0,2.26-1.983A10.951,10.951,0,0,0,22.4,12.93a8.421,8.421,0,0,0,.1-1.6,8.421,8.421,0,0,0-.1-1.6A11.046,11.046,0,0,0,14.876.838a11.549,11.549,0,0,0-2.29-.48C12.38.337,10.958.313,10.78.33Zm4.5,6.654a.434.434,0,0,1,.217.254c.017.056.022,1.252.017,3.946l-.006,3.867-.682-1.045-.684-1.045V10.15c0-1.817.009-2.839.022-2.888a.439.439,0,0,1,.213-.271c.088-.045.12-.049.458-.049.318,0,.374,0,.445.043Z" fill="#282a36"/>
      <path id="Path_2118" data-name="Path 2118" d="M757.637,943.045c-.076.048-.1.08-.032.043.048-.028.125-.086.112-.089A.446.446,0,0,0,757.637,943.045Zm-.149.1c-.039.03-.039.032.009.009a.131.131,0,0,0,.047-.032C757.544,943.1,757.533,943.106,757.488,943.143Zm-.108.065c-.039.03-.039.032.009.009a.131.131,0,0,0,.047-.032C757.436,943.166,757.425,943.171,757.38,943.207Zm-.108.065c-.039.03-.039.032.009.009a.132.132,0,0,0,.047-.032C757.328,943.231,757.317,943.236,757.272,943.272Zm-.164.086c-.082.043-.078.061,0,.019a.225.225,0,0,0,.065-.043C757.177,943.32,757.174,943.322,757.108,943.359Z" transform="translate(-740.281 -922.411)" fill="#282a36"/>
    </g>
  </g>
</svg>
