<svg xmlns="http://www.w3.org/2000/svg" width="19.964" height="22" viewBox="0 0 19.964 22">
  <g id="nodejs-icon" transform="translate(-0.603 -0.584)">
    <path id="Path_3751" data-name="Path 3751" d="M9.684.819a1.845,1.845,0,0,1,1.8,0Q15.6,3.143,19.712,5.466a1.693,1.693,0,0,1,.855,1.458v9.322a1.712,1.712,0,0,1-.919,1.49l-8.2,4.624A1.793,1.793,0,0,1,9.63,22.31Q8.4,21.6,7.17,20.888a1.448,1.448,0,0,1-.474-.342c.1-.141.291-.158.443-.22a5.74,5.74,0,0,0,.97-.453.226.226,0,0,1,.253.015c.7.4,1.4.815,2.1,1.213.15.087.3-.028.43-.1q4.023-2.274,8.049-4.542a.266.266,0,0,0,.146-.262q0-4.612,0-9.226a.288.288,0,0,0-.172-.288q-4.085-2.3-8.169-4.6a.284.284,0,0,0-.321,0Q6.34,4.382,2.257,6.686a.285.285,0,0,0-.173.286q0,4.612,0,9.226a.261.261,0,0,0,.148.259q1.09.618,2.181,1.232a1.686,1.686,0,0,0,1.364.183,1.035,1.035,0,0,0,.67-.972c0-3.057,0-6.115,0-9.171A.23.23,0,0,1,6.7,7.493c.349,0,.7,0,1.048,0a.242.242,0,0,1,.228.28c0,3.076,0,6.153,0,9.229A2.34,2.34,0,0,1,6.88,19.116a3.37,3.37,0,0,1-3.012-.083c-.8-.4-1.562-.869-2.346-1.3A1.708,1.708,0,0,1,.6,16.246V6.924a1.7,1.7,0,0,1,.885-1.477Z" transform="translate(0)" fill="#8cc84b"/>
    <path id="Path_3752" data-name="Path 3752" d="M108.094,85.633a6.491,6.491,0,0,1,3.553.544,2.687,2.687,0,0,1,1.31,2.325.252.252,0,0,1-.273.185c-.347,0-.694,0-1.041,0a.268.268,0,0,1-.251-.26,1.585,1.585,0,0,0-.758-1.1,4.5,4.5,0,0,0-2.08-.3,2.824,2.824,0,0,0-1.489.371.944.944,0,0,0-.314,1.054c.112.265.417.35.668.429,1.442.377,2.969.34,4.383.836a2.064,2.064,0,0,1,1.359,1.209,2.582,2.582,0,0,1-.437,2.463,3.451,3.451,0,0,1-1.853,1,8.9,8.9,0,0,1-2.8.119,4.407,4.407,0,0,1-2.46-.926,2.582,2.582,0,0,1-.831-2.037.233.233,0,0,1,.255-.206c.35,0,.7,0,1.049,0a.245.245,0,0,1,.25.242,1.589,1.589,0,0,0,.591,1.115,4.483,4.483,0,0,0,2.415.44,3.28,3.28,0,0,0,1.98-.484,1.094,1.094,0,0,0,.3-1.045c-.085-.309-.408-.453-.685-.547-1.423-.45-2.968-.287-4.377-.8a2.13,2.13,0,0,1-1.345-1.172,2.4,2.4,0,0,1,.48-2.5,3.871,3.871,0,0,1,2.4-.965Z" transform="translate(-96.036 -78.373)" fill="#8cc84b"/>
  </g>
</svg>
