<svg xmlns="http://www.w3.org/2000/svg" width="21.139" height="22" viewBox="0 0 21.139 22">
  <g id="notion-2" transform="translate(-13.38 -3.496)">
    <path id="Path_3753" data-name="Path 3753" d="M20.936,3.951c-3.444.255-6.372.489-6.51.517a1.265,1.265,0,0,0-.9.675l-.145.3.014,7.226.02,7.226.22.448c.124.248.964,1.405,1.881,2.6,1.812,2.349,1.942,2.48,2.631,2.549.2.02,1.7-.048,3.327-.145s4.25-.262,5.821-.351c6.709-.407,6.365-.373,6.75-.7.482-.4.448.255.468-8.528.014-7.447.007-7.935-.1-8.163-.131-.255-.365-.434-3.424-2.583C28.941,3.586,28.8,3.51,27.879,3.5c-.379-.014-3.506.193-6.943.455Zm7.742.944a32.205,32.205,0,0,1,2.714,1.888c.083.083.11.152.069.193-.1.083-13.185.861-13.563.806a1.707,1.707,0,0,1-.572-.227A17.362,17.362,0,0,1,15.24,5.839c0-.234-.048-.234,5.786-.654,1.116-.076,2.948-.213,4.064-.3,2.417-.193,3.141-.186,3.588.014ZM32.84,8.663a.9.9,0,0,1,.206.461c.02.166.034,3.252.02,6.847-.02,6.172-.027,6.558-.145,6.737a.7.7,0,0,1-.31.262c-.289.117-14,.9-14.286.813a1.065,1.065,0,0,1-.406-.241l-.166-.179-.02-6.654c-.014-4.67,0-6.737.055-6.923a.724.724,0,0,1,.234-.358,23.3,23.3,0,0,1,3.734-.317c1.963-.11,5-.3,6.744-.4,4.146-.255,4.132-.255,4.339-.049Z" transform="translate(0 0)"/>
    <path id="Path_3754" data-name="Path 3754" d="M175.887,172.328a10.3,10.3,0,0,0-1.49.16.7.7,0,0,0-.395.534c-.021.229.049.256.8.347l.326.042v2.959c0,1.76-.028,2.924-.062,2.89s-1.018-1.538-2.19-3.326-2.141-3.271-2.155-3.284-.776.028-1.691.09a9.252,9.252,0,0,0-1.864.215.987.987,0,0,0-.423.714c0,.145.263.222.818.222h.291V182.4l-.471.145c-.367.111-.492.18-.554.319-.111.236-.1.451.007.451.042,0,.825-.049,1.725-.1,1.781-.1,1.982-.153,2.169-.52a1.063,1.063,0,0,0,.1-.263,1.691,1.691,0,0,0-.534-.18l-.658-.152c-.118-.035-.125-.249-.125-3.229v-3.195l2.107,3.305c2.21,3.465,2.488,3.86,2.827,4.033a2.641,2.641,0,0,0,2.037-.284l.167-.1.014-4.726.021-4.733.367-.069c.436-.083.638-.284.638-.631,0-.222-.014-.236-.222-.229C177.343,172.237,176.629,172.279,175.887,172.328Z" transform="translate(-146.721 -161.428)"/>
  </g>
</svg>
