<svg id="adobe-photoshop-2" xmlns="http://www.w3.org/2000/svg" width="22" height="21.45" viewBox="0 0 22 21.45">
  <path id="Path_2141" data-name="Path 2141" d="M3.9,0H18.1A3.893,3.893,0,0,1,22,3.9V17.554a3.893,3.893,0,0,1-3.9,3.9H3.9a3.893,3.893,0,0,1-3.9-3.9V3.9A3.893,3.893,0,0,1,3.9,0Z" fill="#001e36"/>
  <g id="Group_627" data-name="Group 627" transform="translate(4.908 5.428)">
    <path id="Path_2142" data-name="Path 2142" d="M54,69.142V59.657c0-.065.028-.1.092-.1.157,0,.3,0,.516-.009s.452-.009.7-.018.516-.009.8-.018.562-.009.839-.009a5.42,5.42,0,0,1,1.9.286,3.292,3.292,0,0,1,1.235.756,2.935,2.935,0,0,1,.673,1.051,3.528,3.528,0,0,1,.212,1.2,3.3,3.3,0,0,1-.553,1.963,3.158,3.158,0,0,1-1.484,1.125,5.974,5.974,0,0,1-2.074.313c-.221,0-.369,0-.461-.009s-.221-.009-.4-.009v2.959a.115.115,0,0,1-.1.129H54.111C54.037,69.262,54,69.225,54,69.142Zm2.01-7.808v3.1c.129.009.249.018.36.018h.489a3.443,3.443,0,0,0,1.06-.166,1.585,1.585,0,0,0,.756-.489,1.424,1.424,0,0,0,.286-.949,1.517,1.517,0,0,0-.212-.82A1.337,1.337,0,0,0,58.1,61.5a2.705,2.705,0,0,0-1.088-.184c-.24,0-.452,0-.627.009a2.111,2.111,0,0,0-.378.009Zm10.711,2.535a3.263,3.263,0,0,0-.885-.313,4.86,4.86,0,0,0-1.032-.12,1.856,1.856,0,0,0-.553.065.473.473,0,0,0-.286.184.489.489,0,0,0-.074.249.41.41,0,0,0,.092.24,1.04,1.04,0,0,0,.313.249c.212.111.433.212.654.3a6.677,6.677,0,0,1,1.42.673,2.145,2.145,0,0,1,.728.765,1.99,1.99,0,0,1,.212.949,2.145,2.145,0,0,1-.36,1.226,2.31,2.31,0,0,1-1.032.82,4.224,4.224,0,0,1-1.668.295A6.35,6.35,0,0,1,63,69.336a3.719,3.719,0,0,1-.94-.295.181.181,0,0,1-.1-.175v-1.6a.1.1,0,0,1,.037-.083.07.07,0,0,1,.083.009,3.946,3.946,0,0,0,1.143.452,4.291,4.291,0,0,0,1.088.138,1.759,1.759,0,0,0,.765-.129.428.428,0,0,0,.249-.387.488.488,0,0,0-.221-.369,3.909,3.909,0,0,0-.9-.433,5.64,5.64,0,0,1-1.309-.664,2.387,2.387,0,0,1-.7-.784,1.978,1.978,0,0,1-.212-.94,2.168,2.168,0,0,1,.313-1.115,2.272,2.272,0,0,1,.968-.848,3.575,3.575,0,0,1,1.632-.323,7.947,7.947,0,0,1,1.143.083,3.243,3.243,0,0,1,.793.212.162.162,0,0,1,.092.083.462.462,0,0,1,.018.111v1.5a.113.113,0,0,1-.046.092.246.246,0,0,1-.166,0Z" transform="translate(-54 -59.5)" fill="#31a8ff"/>
  </g>
</svg>
