<svg xmlns="http://www.w3.org/2000/svg" width="21.339" height="22" viewBox="0 0 21.339 22">
  <g id="postgresql" transform="translate(-0.297 -0.364)">
    <path id="Path_2135" data-name="Path 2135" d="M21.58,13.543a1.083,1.083,0,0,0-.9-.724,2.058,2.058,0,0,0-.717.04A6.446,6.446,0,0,1,18.859,13a21.313,21.313,0,0,0,2.256-5.367c.749-2.9.349-4.219-.119-4.816A6.474,6.474,0,0,0,15.776.365a9.25,9.25,0,0,0-2.713.38A10.1,10.1,0,0,0,11.476.6a5.158,5.158,0,0,0-2.764.681A12.6,12.6,0,0,0,6.76.791a6.045,6.045,0,0,0-4.572.726C.826,2.479.194,4.151.311,6.487a28.561,28.561,0,0,0,1.1,5.137,17.741,17.741,0,0,0,1.19,3.036,3.76,3.76,0,0,0,1.921,2A1.888,1.888,0,0,0,6.4,16.257a1.634,1.634,0,0,0,.393.338,2.615,2.615,0,0,0,.742.312,3.983,3.983,0,0,0,2.592-.154c0,.135.008.263.011.374.005.18.01.357.017.522a9.146,9.146,0,0,0,.346,2.594c.012.033.029.084.047.138a3.123,3.123,0,0,0,.778,1.371,2.322,2.322,0,0,0,1.642.611,3.691,3.691,0,0,0,.768-.085,3.608,3.608,0,0,0,2.427-1.4c.637-.907.947-2.274,1-4.428.007-.061.014-.119.02-.174l.013-.114.15.013.039,0a5.941,5.941,0,0,0,2.485-.431c.5-.23,2.085-1.069,1.711-2.2" transform="translate(0)"/>
    <path id="Path_2136" data-name="Path 2136" d="M30.225,23.86c-2.478.511-2.648-.328-2.648-.328,2.616-3.882,3.71-8.811,2.766-10.017-2.575-3.29-7.032-1.734-7.106-1.694l-.024,0a8.836,8.836,0,0,0-1.653-.172,4.083,4.083,0,0,0-2.617.783s-7.951-3.276-7.581,4.12c.079,1.573,2.255,11.905,4.851,8.785.949-1.141,1.866-2.106,1.866-2.106a2.406,2.406,0,0,0,1.572.4l.044-.038a1.732,1.732,0,0,0,.018.444c-.669.747-.472.878-1.809,1.154-1.353.279-.558.775-.039.9a2.748,2.748,0,0,0,3.067-1l-.039.157a4.468,4.468,0,0,1,.415,2.413A6.646,6.646,0,0,0,21.461,30c.207.562.412,1.825,2.17,1.449a2.591,2.591,0,0,0,2.335-2.491c.075-.967.245-.824.256-1.689l.136-.409c.157-1.311.025-1.734.93-1.537l.22.019A5.01,5.01,0,0,0,29.557,25c1.1-.511,1.755-1.365.669-1.14h0" transform="translate(-10.101 -10.103)" fill="#336791"/>
    <path id="Path_2137" data-name="Path 2137" d="M101.389,79.705a.794.794,0,0,0-.545.078.2.2,0,0,0-.083.133.389.389,0,0,0,.094.254.713.713,0,0,0,.452.282.515.515,0,0,0,.072,0,.587.587,0,0,0,.556-.378c.028-.2-.264-.335-.547-.374m7.639.006c-.022-.158-.3-.2-.568-.165s-.523.157-.5.315a.539.539,0,0,0,.5.332.478.478,0,0,0,.067,0,.646.646,0,0,0,.365-.2.4.4,0,0,0,.137-.277" transform="translate(-92.219 -72.563)" fill="#fff"/>
    <path id="Path_2138" data-name="Path 2138" d="M27.5,20.1c-.095-.286-.4-.378-.9-.274-1.5.31-2.039.1-2.216-.035a20.653,20.653,0,0,0,2.645-5.934,11.277,11.277,0,0,0,.392-2.552,2.756,2.756,0,0,0-.4-1.724,5.868,5.868,0,0,0-4.744-2.216A8.126,8.126,0,0,0,19.53,7.8a6.835,6.835,0,0,0-1.543-.2,4.457,4.457,0,0,0-2.644.729,11.8,11.8,0,0,0-2.149-.564A5.472,5.472,0,0,0,9.082,8.4c-1.178.835-1.722,2.327-1.616,4.434a27.842,27.842,0,0,0,1.077,4.98c.839,2.75,1.751,4.306,2.711,4.627a1.214,1.214,0,0,0,.385.064,1.607,1.607,0,0,0,1.226-.695q.817-.98,1.69-1.912a2.722,2.722,0,0,0,1.216.327c0,.011,0,.022,0,.033q-.109.131-.214.265c-.294.373-.355.451-1.3.645-.269.056-.983.2-.994.7-.011.547.844.777.942.8a4.033,4.033,0,0,0,.979.127,2.85,2.85,0,0,0,1.961-.732,18.574,18.574,0,0,0,.3,4.459,2.239,2.239,0,0,0,2.14,1.651,3.433,3.433,0,0,0,.719-.082,2.716,2.716,0,0,0,2.475-2.519c.139-.8.377-2.726.489-3.756a3.026,3.026,0,0,0,.87.108,5.179,5.179,0,0,0,1.976-.377c.558-.259,1.565-.9,1.383-1.448ZM23.82,13.138a6.251,6.251,0,0,1-.091.869,8.025,8.025,0,0,0-.11,1.02,7.735,7.735,0,0,0,.081,1.153,4.108,4.108,0,0,1-.18,2.342,3.046,3.046,0,0,1-.163-.334c-.046-.111-.145-.288-.282-.534-.534-.957-1.783-3.2-1.144-4.114.191-.272.674-.552,1.888-.4ZM22.349,7.984a5.189,5.189,0,0,1,4.183,1.979c.764.977-.077,5.422-2.514,9.257l-.074-.093-.031-.039a4.333,4.333,0,0,0,.4-2.981,7.15,7.15,0,0,1-.077-1.06,7.509,7.509,0,0,1,.1-.946,5.974,5.974,0,0,0,.1-1.171.485.485,0,0,0,.01-.165,6.574,6.574,0,0,0-1.5-2.82A6.753,6.753,0,0,0,20.56,8.152a8.034,8.034,0,0,1,1.788-.168ZM12.392,21.415c-.492.592-.832.478-.944.441-.728-.243-1.573-1.782-2.318-4.223A27.59,27.59,0,0,1,8.08,12.8c-.094-1.883.362-3.2,1.357-3.9,1.618-1.148,4.279-.461,5.348-.112l-.047.045c-1.754,1.772-1.713,4.8-1.709,4.985,0,.071.006.173.014.312a12.529,12.529,0,0,1-.064,2.53,3.2,3.2,0,0,0,.843,2.678q.1.108.218.206c-.3.322-.954,1.034-1.649,1.871Zm1.875-2.5a2.589,2.589,0,0,1-.678-2.168,13.1,13.1,0,0,0,.069-2.652c0-.074-.008-.139-.011-.191a3.375,3.375,0,0,1,2.291-.67.932.932,0,0,1,.72.8,5.62,5.62,0,0,1-.286,4.107c-.073.162-.142.315-.2.473l-.046.122a8.017,8.017,0,0,0-.289.87,2.187,2.187,0,0,1-1.57-.7Zm.089,3.162a1.359,1.359,0,0,1-.41-.176,2,2,0,0,1,.437-.13c1.112-.229,1.284-.391,1.659-.867.086-.109.183-.233.319-.384h0c.2-.225.293-.187.46-.118a.651.651,0,0,1,.32.412.459.459,0,0,1-.039.385A2.431,2.431,0,0,1,14.356,22.075Zm5.821,5.418a1.657,1.657,0,0,1-2.16-1.2,24.422,24.422,0,0,1-.234-5.376.308.308,0,0,0-.013-.1,1.289,1.289,0,0,0-.038-.18,1.246,1.246,0,0,0-.676-.811.953.953,0,0,0-.622-.075,7.52,7.52,0,0,1,.268-.8l.046-.123c.052-.139.116-.282.185-.435a6.218,6.218,0,0,0,.327-4.489A1.6,1.6,0,0,0,15.323,12.6a4.465,4.465,0,0,0-1.481.461c-.061.031-.117.061-.17.09a6.467,6.467,0,0,1,1.5-3.886,3.694,3.694,0,0,1,2.8-1.048,5.934,5.934,0,0,1,4.534,2.167,6.883,6.883,0,0,1,1.241,2.128c-1.147-.117-1.927.11-2.323.675-.86,1.23.471,3.618,1.111,4.766.117.21.219.392.25.469a4.261,4.261,0,0,0,.675,1.088c.06.075.119.149.163.212-.347.1-.972.332-.915,1.489-.046.581-.372,3.3-.538,4.259a2.106,2.106,0,0,1-2,2.023Zm5.68-6.5a4.481,4.481,0,0,1-1.515.315,1.9,1.9,0,0,1-1.016-.131c-.035-.721.233-.8.517-.876.045-.013.088-.025.13-.039a1.061,1.061,0,0,0,.086.063,3.759,3.759,0,0,0,2.658.106l.014,0A3.4,3.4,0,0,1,25.857,20.992Z" transform="translate(-6.54 -6.4)" fill="#fff"/>
  </g>
</svg>
