<svg xmlns="http://www.w3.org/2000/svg" width="18.218" height="22" viewBox="0 0 18.218 22">
  <path id="prisma-3" d="M18.1,16.759,10.532.692A1.214,1.214,0,0,0,9.5,0,1.2,1.2,0,0,0,8.392.574L.187,13.865A1.243,1.243,0,0,0,.2,15.2l4.012,6.213a1.29,1.29,0,0,0,1.449.533L17.3,18.5a1.276,1.276,0,0,0,.8-.692,1.248,1.248,0,0,0-.007-1.05Zm-1.694.689L6.524,20.369A.414.414,0,0,1,6,19.894l3.53-16.9a.341.341,0,0,1,.641-.074L16.7,16.795a.472.472,0,0,1-.3.653Z" transform="translate(0.001 0.002)" fill-rule="evenodd"/>
</svg>
