<svg xmlns="http://www.w3.org/2000/svg" width="22.004" height="19.578" viewBox="0 0 22.004 19.578">
  <g id="bxl-react" transform="translate(-1.99 -2.339)">
    <circle id="Ellipse_5" data-name="Ellipse 5" cx="1.962" cy="1.962" r="1.962" transform="translate(11.031 10.166)" fill="#8be9fd"/>
    <path id="Path_666" data-name="Path 666" d="M7.5,15.5l-.434-.111c-3.225-.815-5.075-2.2-5.075-3.794S3.841,8.614,7.065,7.8l.434-.11.122.43A21.442,21.442,0,0,0,8.87,11.4l.093.2-.093.2A21.283,21.283,0,0,0,7.621,15.07L7.5,15.5ZM6.865,8.8c-2.45.69-3.955,1.743-3.955,2.794s1.5,2.1,3.955,2.792a23.09,23.09,0,0,1,1.083-2.792A22.375,22.375,0,0,1,6.865,8.8Zm11.621,6.7-.121-.431a21.574,21.574,0,0,0-1.25-3.28l-.093-.195.093-.2a21.531,21.531,0,0,0,1.25-3.28l.121-.429.434.11c3.226.815,5.075,2.2,5.075,3.8s-1.85,2.98-5.075,3.794l-.434.111Zm-.451-3.905a22.654,22.654,0,0,1,1.085,2.792c2.451-.689,3.956-1.743,3.956-2.792s-1.5-2.1-3.956-2.794a22.736,22.736,0,0,1-1.085,2.794Z" transform="translate(0 0.531)" fill="#8be9fd"/>
    <path id="Path_667" data-name="Path 667" d="M6.477,9.325,6.357,8.9c-.908-3.2-.633-5.486.755-6.284,1.358-.786,3.542.143,5.829,2.49l.312.321-.312.32a21.674,21.674,0,0,0-2.22,2.719l-.124.178-.215.018a21.6,21.6,0,0,0-3.47.559l-.433.108ZM8.216,3.248a1.282,1.282,0,0,0-.647.159c-.91.524-1.071,2.35-.444,4.814a22.957,22.957,0,0,1,2.963-.458A23.147,23.147,0,0,1,11.971,5.43C10.539,4.037,9.187,3.248,8.216,3.248Zm8.79,18.669c-1.306,0-2.983-.985-4.724-2.772l-.311-.32.311-.319A21.794,21.794,0,0,0,14.5,15.783l.123-.176.213-.021a21.4,21.4,0,0,0,3.471-.557l.434-.11.122.43c.9,3.194.63,5.487-.756,6.285a2.174,2.174,0,0,1-1.1.282Zm-3.754-3.1C14.684,20.21,16.037,21,17.007,21a1.287,1.287,0,0,0,.647-.159c.911-.525,1.073-2.354.444-4.819a22.72,22.72,0,0,1-2.966.461,22.561,22.561,0,0,1-1.88,2.335Z" transform="translate(0.381 0)" fill="#8be9fd"/>
    <path id="Path_668" data-name="Path 668" d="M18.746,9.325l-.434-.109a21.409,21.409,0,0,0-3.471-.559l-.213-.019L14.5,8.46a21.49,21.49,0,0,0-2.221-2.719l-.311-.32.311-.319c2.286-2.346,4.469-3.275,5.829-2.49,1.387.8,1.663,3.089.756,6.284ZM15.133,7.763a22.729,22.729,0,0,1,2.966.458c.628-2.464.467-4.29-.444-4.816s-2.611.278-4.4,2.024a22.667,22.667,0,0,1,1.88,2.334ZM8.216,21.917a2.18,2.18,0,0,1-1.1-.282c-1.388-.8-1.663-3.09-.756-6.285l.119-.43.434.11a21.464,21.464,0,0,0,3.471.557l.213.021.124.176a21.591,21.591,0,0,0,2.22,2.723l.312.319-.312.32c-1.74,1.788-3.417,2.772-4.721,2.772ZM7.125,16.023c-.627,2.464-.466,4.293.444,4.819s2.606-.28,4.4-2.025a23.269,23.269,0,0,1-1.883-2.334,22.745,22.745,0,0,1-2.963-.461Z" transform="translate(0.381 0)" fill="#8be9fd"/>
    <path id="Path_669" data-name="Path 669" d="M12.455,16.121c-.755,0-1.53-.032-2.308-.1l-.215-.019-.124-.178q-.658-.947-1.238-1.944T7.5,11.84l-.092-.195.092-.2Q8,10.406,8.57,9.406c.381-.655.8-1.31,1.238-1.946l.124-.176.215-.02a27.642,27.642,0,0,1,4.614,0l.213.021.124.176a27.63,27.63,0,0,1,2.308,3.988l.091.2-.091.195A27.2,27.2,0,0,1,15.1,15.829l-.124.178-.213.019c-.776.063-1.552.1-2.306.1Zm-2.016-.994a26.527,26.527,0,0,0,4.031,0,26.9,26.9,0,0,0,2.014-3.482A26.288,26.288,0,0,0,14.47,8.163a26.245,26.245,0,0,0-4.031,0,26.1,26.1,0,0,0-2.014,3.482,27.282,27.282,0,0,0,2.014,3.482Z" transform="translate(0.538 0.479)" fill="#8be9fd"/>
  </g>
</svg>
