<svg xmlns="http://www.w3.org/2000/svg" width="22" height="16.491" viewBox="0 0 22 16.491">
  <path id="sass-1" d="M18.823,9.71a4.532,4.532,0,0,0-1.994.464,4.1,4.1,0,0,1-.447-1.031,2.853,2.853,0,0,1-.039-.868,6.956,6.956,0,0,1,.262-.937c0-.039-.047-.228-.49-.232s-.825.086-.868.2a4.935,4.935,0,0,0-.185.657,15.64,15.64,0,0,1-1.345,2.587,2.639,2.639,0,0,1-.305-.756,2.852,2.852,0,0,1-.039-.868,6.959,6.959,0,0,1,.262-.937c0-.039-.047-.228-.49-.232s-.825.086-.868.2-.09.391-.185.657S10.929,11.274,10.65,11.9c-.142.318-.266.572-.357.743s0,.013-.013.03l-.12.228v0c-.06.107-.125.211-.155.211a1.433,1.433,0,0,1,.009-.683c.159-.829.546-2.123.541-2.17,0-.021.073-.249-.249-.365a.392.392,0,0,0-.451.077c-.026,0-.047.069-.047.069s.348-1.457-.666-1.457A3.014,3.014,0,0,0,7.195,9.908c-.275.15-.859.468-1.478.808-.236.129-.481.266-.713.391l-.047-.052c-1.229-1.311-3.5-2.239-3.408-4,.034-.64.258-2.329,4.366-4.375C9.279,1,11.973,1.464,12.442,2.486,13.108,3.947,11,6.663,7.5,7.054A2.624,2.624,0,0,1,5.3,6.5c-.185-.2-.211-.211-.279-.172-.112.06-.043.241,0,.348a2.074,2.074,0,0,0,1.263.993,6.7,6.7,0,0,0,4.1-.4c2.119-.821,3.773-3.1,3.287-5C13.168.321,9.954-.315,6.915.763A15.3,15.3,0,0,0,1.737,3.733C.061,5.3-.205,6.663-.094,7.23c.391,2.024,3.18,3.343,4.3,4.319l-.155.086C3.49,11.91,1.363,13.023.83,14.2c-.6,1.332.095,2.29.559,2.419a3.434,3.434,0,0,0,3.7-1.5A3.711,3.711,0,0,0,5.42,11.7l-.013-.026.438-.258c.284-.168.563-.322.808-.456a5.35,5.35,0,0,0-.288,1.461,3.047,3.047,0,0,0,.657,2.123.727.727,0,0,0,.529.172c.473,0,.688-.391.924-.859.292-.572.55-1.233.55-1.233S8.7,14.42,9.584,14.42c.322,0,.645-.417.791-.632v0s.009-.013.026-.043.035-.054.052-.082v-.009c.129-.223.417-.735.847-1.581.554-1.092,1.087-2.458,1.087-2.458a7.844,7.844,0,0,0,.211.885,8.471,8.471,0,0,0,.46,1.031c-.129.18-.206.284-.206.284l0,0c-.1.138-.219.284-.339.43a12.489,12.489,0,0,0-1.031,1.294.354.354,0,0,0,.095.473.86.86,0,0,0,.541.086,2.412,2.412,0,0,0,.808-.185,2.8,2.8,0,0,0,.7-.365,1.55,1.55,0,0,0,.666-1.371,2.756,2.756,0,0,0-.254-.967c.039-.056.077-.112.116-.172a18.14,18.14,0,0,0,1.2-2.084,7.844,7.844,0,0,0,.211.885,6.206,6.206,0,0,0,.391.885,3.82,3.82,0,0,0-1.173,1.517c-.254.731-.056,1.061.318,1.139a1.144,1.144,0,0,0,.589-.12,2.668,2.668,0,0,0,.743-.382,1.681,1.681,0,0,0,.821-1.358,2.6,2.6,0,0,0-.185-.8,4.186,4.186,0,0,1,2.131-.245c1.912.223,2.29,1.418,2.217,1.917a1.284,1.284,0,0,1-.606.859c-.133.082-.176.112-.163.172.017.09.077.086.193.069a1.488,1.488,0,0,0,1.04-1.328c.052-1.182-1.07-2.471-3.06-2.458ZM4.075,14.682c-.632.692-1.521.954-1.9.731-.408-.236-.249-1.255.529-1.99A10.111,10.111,0,0,1,4.2,12.31c.09-.056.228-.137.391-.236a.458.458,0,0,1,.043-.026c.03-.017.064-.039.1-.06A2.741,2.741,0,0,1,4.075,14.682Zm4.62-3.141c-.219.537-.683,1.917-.963,1.839-.241-.064-.387-1.109-.047-2.14A4.777,4.777,0,0,1,8.436,9.86c.348-.387.726-.516.821-.357A7.236,7.236,0,0,1,8.694,11.541Zm3.812,1.822c-.095.047-.18.082-.219.056s.039-.082.039-.082.477-.511.666-.748c.107-.137.236-.3.374-.477v.052a1.587,1.587,0,0,1-.859,1.2Zm2.939-.67c-.069-.052-.06-.211.172-.709a2.657,2.657,0,0,1,.653-.842,1.063,1.063,0,0,1,.064.37A1.209,1.209,0,0,1,15.445,12.692Z" transform="translate(0.116 -0.241)" fill="#ff79c6"/>
</svg>
