<svg xmlns="http://www.w3.org/2000/svg" width="22" height="22.023" viewBox="0 0 22 22.023">
  <g id="strapi-2" transform="translate(-0.585 -0.76)">
    <path id="Path_2133" data-name="Path 2133" d="M85.841,15.871V8.664a.465.465,0,0,0-.465-.465h-7.2V.76H92.807a.465.465,0,0,1,.465.465V15.871Z" transform="translate(-70.687)" fill="#8e75ff" fill-rule="evenodd"/>
    <path id="Path_2134" data-name="Path 2134" d="M7.625.76V8.133H.816A.23.23,0,0,1,.653,7.74Zm7.6,21.793V15.737h7.365l-6.972,6.979a.23.23,0,0,1-.393-.163Zm-7.6-14.42H14.99a.23.23,0,0,1,.23.23v7.373H8.086a.461.461,0,0,1-.461-.461Z" transform="translate(0 0)" fill="#8e75ff" fill-rule="evenodd" opacity="0.405"/>
  </g>
</svg>
