<svg xmlns="http://www.w3.org/2000/svg" width="22" height="13.197" viewBox="0 0 22 13.197">
  <path id="tailwind-css-2" d="M11.15.13q-4.4,0-5.5,4.4A3.528,3.528,0,0,1,9.5,2.879a4.69,4.69,0,0,1,2.1,1.488A6.349,6.349,0,0,0,16.65,6.728q4.4,0,5.5-4.4a3.528,3.528,0,0,1-3.85,1.65,4.691,4.691,0,0,1-2.1-1.488A6.35,6.35,0,0,0,11.15.13Zm-5.5,6.6q-4.4,0-5.5,4.4A3.527,3.527,0,0,1,4,9.477a4.7,4.7,0,0,1,2.1,1.488,6.35,6.35,0,0,0,5.053,2.361q4.4,0,5.5-4.4a3.528,3.528,0,0,1-3.85,1.65,4.69,4.69,0,0,1-2.1-1.488A6.35,6.35,0,0,0,5.65,6.728Z" transform="translate(-0.15 -0.13)" fill="#06b6d4"/>
</svg>
