<svg id="typescript" xmlns="http://www.w3.org/2000/svg" width="22" height="22" viewBox="0 0 22 22">
  <path id="Path_2128" data-name="Path 2128" d="M0,11V0H22V22H0" fill="#007acc"/>
  <path id="Path_2129" data-name="Path 2129" d="M87.7,183.054v.9h2.86v8.14h2.03v-8.14h2.86v-.88a6.856,6.856,0,0,0-.022-.908c0-.016-1.744-.022-3.861-.022l-3.85.016v.9Zm12.854-.918a2.663,2.663,0,0,1,1.375.786,3.461,3.461,0,0,1,.528.7c0,.033-.951.677-1.529,1.034-.022.016-.11-.077-.2-.22a1.258,1.258,0,0,0-1.034-.616c-.66-.044-1.1.3-1.1.88a.869.869,0,0,0,.1.418c.148.3.424.484,1.276.858,1.573.676,2.255,1.122,2.667,1.76a3.2,3.2,0,0,1,.259,2.678,2.936,2.936,0,0,1-2.437,1.743,6.862,6.862,0,0,1-1.678-.016,4.152,4.152,0,0,1-2.238-1.172,3.932,3.932,0,0,1-.572-.847l.209-.132.825-.479.621-.363.143.193a2.993,2.993,0,0,0,.825.8,2.045,2.045,0,0,0,2.145-.11.824.824,0,0,0,.292-.66.849.849,0,0,0-.165-.561c-.176-.242-.528-.44-1.518-.88a5.521,5.521,0,0,1-2.074-1.265,3.125,3.125,0,0,1-.6-1.1,4.212,4.212,0,0,1-.033-1.414,2.68,2.68,0,0,1,2.255-2.09,5.331,5.331,0,0,1,1.672.055Z" transform="translate(-82.876 -172.015)" fill="#fff"/>
</svg>
