<svg xmlns="http://www.w3.org/2000/svg" width="22" height="21.765" viewBox="0 0 22 21.765">
  <g id="visual-studio-code-1" transform="translate(-2.725 -13.961)">
    <path id="Path_2148" data-name="Path 2148" d="M2.937,246.19s-.542-.391.108-.913l1.516-1.356a.644.644,0,0,1,.893-.059l13.992,10.594v5.08s-.007.8-1.03.71Z" transform="translate(0 -224.81)" fill="#2489ca"/>
    <path id="Path_2149" data-name="Path 2149" d="M8.582,498.8l-3.607,3.279s-.371.276,0,.768L6.65,504.37a.688.688,0,0,0,.985-.059l3.824-2.9Z" transform="translate(-2.039 -474.06)" fill="#1070b3"/>
    <path id="Path_2150" data-name="Path 2150" d="M302.455,32.971l6.614-5.051-.043-5.053s-.282-1.1-1.225-.529L299,30.35Z" transform="translate(-289.726 -8.027)" fill="#0877b9"/>
    <path id="Path_2151" data-name="Path 2151" d="M688.694,35.445a.917.917,0,0,0,.85.261L694.7,33.2a1.069,1.069,0,0,0,.567-1V17.215a1.006,1.006,0,0,0-.682-.886L690.116,14.2a1.251,1.251,0,0,0-1.616.107s.823-.585,1.225.522V34.646a.891.891,0,0,1-.088.391c-.117.234-.373.453-.985.362Z" transform="translate(-670.545 0)" fill="#3c99d4"/>
  </g>
</svg>
