    <svg xmlns="http://www.w3.org/2000/svg" width="18px" height="18px" viewBox="0 0 15.5 15.5">
      <g id="Group_2" data-name="Group 2" transform="translate(0.75 0.75)" >
        <path id="Path_3" data-name="Path 3" d="M7.292,11.5a3.611,3.611,0,0,0-1.432.931.527.527,0,0,0,0,.742,3.611,3.611,0,0,0,1.432.931m5.49-2.6a3.611,3.611,0,0,1,1.432.931.527.527,0,0,1,0,.742,3.611,3.611,0,0,1-1.432.931" transform="translate(-2.983 -3.665)" fill="none" stroke="#f8f8f2" stroke-linecap="round" stroke-linejoin="round" stroke-width="1.5" />
        <path id="Path_4" data-name="Path 4" d="M.5,8.2V9.6c0,3.5,1.4,4.9,4.9,4.9H9.6c3.5,0,4.9-1.4,4.9-4.9V5.4C14.5,1.9,13.1.5,9.6.5H5.4C1.9.5.5,1.9.5,5.4m.161-.693L14.116,4.7" transform="translate(-0.5 -0.5)" fill="none" stroke="#f8f8f2" stroke-linecap="round" stroke-linejoin="round" stroke-width="1.5" />
      </g>
    </svg>