<svg id="bxl-instagram-alt" xmlns="http://www.w3.org/2000/svg" width="24" height="24" viewBox="0 0 24 24">
  <path id="Path_24" data-name="Path 24" d="M26.92,10.065a8.676,8.676,0,0,0-.558-2.948,6.139,6.139,0,0,0-3.509-3.5,8.817,8.817,0,0,0-2.913-.559C18.657,3,18.25,2.981,15,2.981s-3.672,0-4.944.073a8.817,8.817,0,0,0-2.912.559,6.135,6.135,0,0,0-3.509,3.5,8.708,8.708,0,0,0-.558,2.907C3.014,11.3,3,11.711,3,14.96s0,3.664.075,4.936a8.763,8.763,0,0,0,.558,2.91,6.139,6.139,0,0,0,3.51,3.5,8.787,8.787,0,0,0,2.912.6c1.283.057,1.69.075,4.944.075s3.672,0,4.944-.075a8.8,8.8,0,0,0,2.913-.557,6.145,6.145,0,0,0,3.509-3.5,8.75,8.75,0,0,0,.558-2.91C26.98,18.656,27,18.25,27,15S26.994,11.338,26.92,10.065ZM14.988,21.1a6.151,6.151,0,1,1,6.161-6.151A6.155,6.155,0,0,1,14.988,21.1Zm6.406-11.1A1.434,1.434,0,1,1,22.83,8.575,1.437,1.437,0,0,1,21.394,10.009Z" transform="translate(-2.997 -2.981)" fill="#f8f8f2"/>
  <circle id="Ellipse_1" data-name="Ellipse 1" cx="3.003" cy="3.003" r="3.003" transform="translate(8.987 8.966)" fill="#f8f8f2"/>
</svg>


