<svg xmlns="http://www.w3.org/2000/svg" width="24" height="24" viewBox="0 0 24 24">
  <path id="bxl-linkedin-square" d="M25.667,3H4.333A1.333,1.333,0,0,0,3,4.333V25.667A1.333,1.333,0,0,0,4.333,27H25.667A1.333,1.333,0,0,0,27,25.667V4.333A1.333,1.333,0,0,0,25.667,3ZM10.119,23.449H6.556V12h3.563ZM8.337,10.432A2.064,2.064,0,1,1,10.4,8.368,2.064,2.064,0,0,1,8.337,10.432ZM23.451,23.449H19.892V17.88c0-1.328-.024-3.036-1.851-3.036-1.853,0-2.135,1.448-2.135,2.943v5.664H12.351V12h3.413v1.565h.049a3.737,3.737,0,0,1,3.365-1.849c3.605,0,4.271,2.371,4.271,5.456v6.28Z" transform="translate(-3 -3)" fill="#f8f8f2"/>
</svg>

